<svg xmlns="http://www.w3.org/2000/svg" data-name="Layer 1" width="466" height="379" viewBox="0 0 466 379" xmlns:xlink="http://www.w3.org/1999/xlink"><path d="M833,298.43587V601.56413C833,622.51818,813.96244,639.5,790.47155,639.5H409.52845C386.03756,639.5,367,622.51818,367,601.56413V298.43587C367,277.48173,386.03756,260.5,409.52845,260.5h380.9431C813.96244,260.5,833,277.48173,833,298.43587Z" transform="translate(-367 -260.5)" fill="#f2f2f2"/><path d="M522.40444,638.5l27.265-5.91,31.59215-6.85454s1.71048,5.23342,4.11021,12.76451Z" transform="translate(-367 -260.5)" fill="#2f2e41"/><path d="M591.42213,635.1046s-.25531,1.36581-.77862,3.3954H463.35582c-1.40406-4.27616-2.02951-8.67985-.35736-12.31778a8.78593,8.78593,0,0,1,1.0594-1.787,9.24972,9.24972,0,0,1,1.04669-1.21265c2.50188-2.47631,4.03363-7.81187,4.95264-13.88778A161.937,161.937,0,0,0,471.423,584.2253c.01278-.01278.01278-.01278,0-.01278-.02555-1.97848-.07658-3.16557-.07658-3.16557s-.48506-7.314-1.03393-18.36814c.01278,0,0-.01278,0-.01278-1.5062-29.83064-3.54857-86.939,1.74874-102.07771a7.14533,7.14533,0,0,1,1.97848-3.34429,143.82618,143.82618,0,0,1,22.66977-13.39c.45951-.20427.702-.31911.702-.31911l17.47461-.33189,21.69966-3.82935,15.07488-2.75718s1.11051.07659,2.84654.31912c5.7695.79139,18.45742,3.38262,20.24448,10.88816,0,.01277.01278.02555.01278.03825a8.05537,8.05537,0,0,1,.11484,2.9997c-1.7104,12.5092,10.36477,89.33876,14.041,93.18089s2.70607,17.88309-6.38225,26.80546a13.89512,13.89512,0,0,0-3.39532,5.88442c-3.43366,11.04133,1.95293,29.07758,7.22467,37.5149A34.95537,34.95537,0,0,1,591.42213,635.1046Z" transform="translate(-367 -260.5)" fill="#3f3d56"/><polygon points="293.935 128.986 293.569 115.629 293.08 97.717 278.8 97.057 276.801 114.854 274.938 131.392 293.935 128.986" fill="#a0616a"/><path d="M514.66969,446.04254l20.03306,21.49929s84.88137,13.70913,85.44934,6.51081-5.02316-9.28333,4.14193-8.64364,11.36749,7.1512,12.76425.92367-6.288-6.38024,2.60974-7.2631S668,380.5,668,380.5l-31,5s-6.02552,37.5619-9.80381,42.3621-7.56974,8.24474-9.90056,8.45246S514.66969,446.04254,514.66969,446.04254Z" transform="translate(-367 -260.5)" fill="#3f3d56"/><circle cx="159.15841" cy="128.31824" r="29.42945" fill="#a0616a"/><path d="M503.22469,414.16382l11.66678,2.23379s-10.84983-17.51294-10.2116-25.529c.63822-8.01615,9.36918-10.88816,9.36918-10.88816s4.83772,1.0467,9.93074,1.63389a25.60788,25.60788,0,0,1,2.3614-4.91438,8.57257,8.57257,0,0,0,2.50188,5.28453,13.95853,13.95853,0,0,0,5.52705-.63823c2.01681-.919,1.97848-2.51457,1.3147-4.00807,9.71385.47228,18.917,5.19516,18.917,5.19516A52.20574,52.20574,0,0,0,554.1551,370.79c-.28086-.07658-.56164-.16587-.8425-.25523a26.05681,26.05681,0,0,1-5.00366-2.18276,8.618,8.618,0,0,0,4.72288-2.221c-1.07225-3.14009-2.78265-5.85894-5.476-7.18642a20.1877,20.1877,0,0,0-16.7598-.44673s6.24179-4.55693,3.94419-6.42058c-.15317.15317-.30634.29356-.47228.434-.217.17864-.4595.37014-.68926.54886-1.41684,1.14876-3.53579-.47228-3.81657-2.20831a5.852,5.852,0,0,0-.12769-.65092c-.03825-.17873-.08936-.35745-.14039-.52339a4.33177,4.33177,0,0,0-.15317-.434c-4.2506-1.02122-17.10447,3.12724-22.04433,12.26667C507.29657,361.51024,472.7686,378.1041,503.22469,414.16382Z" transform="translate(-367 -260.5)" fill="#3f3d56"/><polygon points="122.115 378 105.623 378 105.061 377.068 97.058 363.895 92.641 356.619 103.057 348.795 107.959 345.119 118.77 370.226 122.115 378" fill="#a0616a"/><path d="M496.71483,443.85407l41.15275,95.08279,16.64489-102.0012c-1.736-.24253-2.84646-.31912-2.84646-.31912l-7.08429-13.76009-40.57841,2.10609L497.41686,443.535S497.17433,443.6498,496.71483,443.85407Z" transform="translate(-367 -260.5)" fill="#06b6d4"/><polygon points="183.856 378 151.447 378 172.139 319.283 182.669 372.09 183.856 378" fill="#06b6d4"/><rect x="261" y="197.81565" width="146.64757" height="87.16814" rx="26.74409" fill="#fff" opacity="0.5"/><path d="M747.90332,546.4834H654.74414A27.776,27.776,0,0,1,627,518.73926V485.05957a27.776,27.776,0,0,1,27.74414-27.74414h93.15918a27.776,27.776,0,0,1,27.74414,27.74414v33.67969A27.776,27.776,0,0,1,747.90332,546.4834Zm-93.15918-87.168A25.77337,25.77337,0,0,0,629,485.05957v33.67969a25.77337,25.77337,0,0,0,25.74414,25.74414h93.15918a25.77337,25.77337,0,0,0,25.74414-25.74414V485.05957a25.77337,25.77337,0,0,0-25.74414-25.74414Z" transform="translate(-367 -260.5)" fill="#fff"/><circle cx="334.20376" cy="244.73549" r="21.35966" fill="#a0616a"/><path d="M705.88783,526.474c-2.62277-5.84725,11.58574-17.9788,2.48215-18.594,0,0-5.98484-10.49239-9.78492-7.67946-4.40014,3.25712-10.81149-2.65859-14.5783-6.61647a12.58243,12.58243,0,0,0,2.14157-2.21134,23.65887,23.65887,0,0,1-3.6262.38,6.14948,6.14948,0,0,1-.92931-2.20862,3.76307,3.76307,0,0,1,1.5759-3.99751c1.38039-.76938,3.14372-.29951,4.61879-.85131a1.26677,1.26677,0,0,0,.69706-.94807,3.32923,3.32923,0,0,1,4.58432-2.29461,1.19725,1.19725,0,0,0,.55954.15562,12.98015,12.98015,0,0,0,3.02926-.559,23.9974,23.9974,0,0,1-3.18045-1.7941c-.20819-.14135-.41646-.28269-.62036-.43227a8.20472,8.20472,0,0,1,6.631-1.70616,24.10172,24.10172,0,0,1,6.96885,2.51587q1.93727.94409,3.86642,1.88382a42.98453,42.98453,0,0,1,7.87381,4.5126,22.14957,22.14957,0,0,1,8.45511,16.86669C726.7697,509.4006,721.20464,527.22623,705.88783,526.474Z" transform="translate(-367 -260.5)" fill="#2f2e41"/><rect x="87.35243" y="282.83186" width="146.64757" height="87.16814" rx="26.74409" fill="#fff" opacity="0.5"/><path d="M574.25586,631.5H481.09668a27.77566,27.77566,0,0,1-27.74414-27.74414V570.07617A27.77566,27.77566,0,0,1,481.09668,542.332h93.15918A27.77566,27.77566,0,0,1,602,570.07617v33.67969A27.77566,27.77566,0,0,1,574.25586,631.5Zm-93.15918-87.168a25.77337,25.77337,0,0,0-25.74414,25.74414v33.67969A25.77337,25.77337,0,0,0,481.09668,629.5h93.15918A25.77337,25.77337,0,0,0,600,603.75586V570.07617A25.77337,25.77337,0,0,0,574.25586,544.332Z" transform="translate(-367 -260.5)" fill="#fff"/><circle cx="162.10679" cy="332.51306" r="21.70253" fill="#ffb6b6"/><path d="M514.969,598.58915a1.9905,1.9905,0,0,0-2.59082,1.52131,4.25347,4.25347,0,0,0,.941,3.23412,20.35284,20.35284,0,0,1,1.98517,2.83643,3.04318,3.04318,0,0,1-.18852,3.26676,2.72737,2.72737,0,0,1-2.85238.60178,6.09252,6.09252,0,0,1-2.47366-1.78741c-4.14909-4.50151-8.47726-11.97448-6.35617-17.71726a5.60947,5.60947,0,0,0,.20684-1.89051c.04061-.73063.176-1.83141-.51226-2.0799-1.92069-.69344,3.4685-11.92011,11.7863-14.36253-.40512-3.83326,19.60571-9.34715,18.51338-4.53468-.19618.8642,1.73615.39449,2.62106.44238,6.78937.36741,14.457,2.07354,13.83876,9.94266-.23941,3.04726,1.02114,2.34433,2.03313,5.22858-1.5766.93994-2.09391,3.00111-3.30931,1.62562s-2.25352-3.09818-3.99577-3.67589c-1.85511-.61513-3.86786.305-5.45008,1.45239s-3.03383,2.57284-4.89357,3.17381c-2.08583.674-4.3601.20511-6.53508.47788a12.93124,12.93124,0,0,0-7.88083,4.62975,38.439,38.439,0,0,0-4.89506,7.93529" transform="translate(-367 -260.5)" fill="#2f2e41"/><path d="M502.76519,457.00805l-29.35836,1.27645s-43.39932,74.03413-38.29352,79.13994,10.32182,2.20734,3.88446,8.76237-12.81961,4.00213-8.99026,9.10793,8.93515-.63956,3.82935,6.7007S470.2157,638.5,470.2157,638.5l17.87031-8.93515s-17.39-45.69571-18.58749-51.686-1.35542-11.11034,0-13.01788S502.76519,457.00805,502.76519,457.00805Z" transform="translate(-367 -260.5)" fill="#3f3d56"/><circle cx="286.11696" cy="212.89321" r="6.88304" fill="#06b6d4"/><path d="M652.178,476.97551a.7654.7654,0,0,1-.61245-.30632l-1.8778-2.50377a.76563.76563,0,1,1,1.225-.91871l1.22852,1.6379,3.15529-4.73288a.76566.76566,0,0,1,1.27414.84942l-3.7556,5.6334a.766.766,0,0,1-.61582.34071Z" transform="translate(-367 -260.5)" fill="#fff"/><circle cx="118.11696" cy="298.89321" r="6.88304" fill="#06b6d4"/><path d="M484.178,562.97551a.7654.7654,0,0,1-.61245-.30632l-1.8778-2.50377a.76563.76563,0,1,1,1.225-.91871l1.22852,1.6379,3.15529-4.73288a.76566.76566,0,0,1,1.27414.84942l-3.7556,5.6334a.766.766,0,0,1-.61582.34071Z" transform="translate(-367 -260.5)" fill="#fff"/><path d="M752.117,483.9505a6.79561,6.79561,0,1,1,6.79561-6.7956A6.79561,6.79561,0,0,1,752.117,483.9505Z" transform="translate(-367 -260.5)" fill="#e6e6e6"/><path d="M754.487,478.57692l-1.422-1.422,1.422-1.422a.67035.67035,0,1,0-.948-.948l-1.422,1.422-1.422-1.422a.67034.67034,0,0,0-.948.948l1.422,1.422-1.422,1.422a.67035.67035,0,1,0,.948.948l1.422-1.422,1.422,1.422a.67034.67034,0,1,0,.948-.948Z" transform="translate(-367 -260.5)" fill="#fff"/><path d="M576.117,565.9505a6.79561,6.79561,0,1,1,6.79561-6.7956A6.79561,6.79561,0,0,1,576.117,565.9505Z" transform="translate(-367 -260.5)" fill="#e6e6e6"/><path d="M578.487,560.57692l-1.422-1.422,1.422-1.422a.67035.67035,0,0,0-.948-.948l-1.422,1.422-1.422-1.422a.67034.67034,0,0,0-.948.948l1.422,1.422-1.422,1.422a.67035.67035,0,1,0,.948.948l1.422-1.422,1.422,1.422a.67034.67034,0,0,0,.948-.948Z" transform="translate(-367 -260.5)" fill="#fff"/><circle cx="286" cy="91" r="12" fill="#a0616a"/><rect x="260.67621" y="87.79943" width="146.64757" height="87.16814" rx="26.74409" fill="#fff" opacity="0.5"/><path d="M747.58008,436.46777H654.41992a27.77566,27.77566,0,0,1-27.74414-27.74414V375.04346a27.77566,27.77566,0,0,1,27.74414-27.74414h93.16016a27.77566,27.77566,0,0,1,27.74414,27.74414v33.68017A27.77566,27.77566,0,0,1,747.58008,436.46777Zm-93.16016-87.16845a25.77336,25.77336,0,0,0-25.74414,25.74414v33.68017a25.77336,25.77336,0,0,0,25.74414,25.74414h93.16016a25.77336,25.77336,0,0,0,25.74414-25.74414V375.04346a25.77336,25.77336,0,0,0-25.74414-25.74414Z" transform="translate(-367 -260.5)" fill="#fff"/><path d="M728.83394,394.38576c.06119,5.59712,1.84275,17.25012.56582,22.73252l-.20646-.45876a25.15446,25.15446,0,0,1-3.372,2.25568,16.15949,16.15949,0,0,0-3.74672-5.50537,19.34279,19.34279,0,0,1-.89461,7.61576c-4.779,1.72042-13.167-3.70084-18.36649-3.81551-8.365-.19116-16.51605-2.271-24.50647-4.47313-2.83676-.77994-5.95648-1.79687-7.241-4.15195s1.01445-4.89712.864-7.55458c-1.07148-18.929,7.94469-22.10184,16.52371-27.15977,1.88792-1.11306,2.81384-3.50963,4.94715-4.44251,2.95917-1.29223,6.48412-.67288,9.70319-.02292a4.90345,4.90345,0,0,1-3.242-3.5479,4.42362,4.42362,0,0,1,1.72807-4.28193,7.96892,7.96892,0,0,1,6.68289-.95579,22.33589,22.33589,0,0,1,6.13237,3.01266,12.18061,12.18061,0,0,1,3.3644,2.72209,3.37345,3.37345,0,0,1,.39758,3.82316,4.37013,4.37013,0,0,1-3.41789,1.65924,11.43786,11.43786,0,0,1-3.01265-.31348,22.91817,22.91817,0,0,1,11.67591,7.0652C727.24349,383.04625,728.76511,388.78865,728.83394,394.38576Z" transform="translate(-367 -260.5)" fill="#2f2e41"/><circle cx="331.82662" cy="133.57222" r="18.53783" fill="#ffb6b6"/><path d="M719.05431,391.2737c-2.17924,2.638-5.42127,2.50037-8.30395,2.07983-.90992-.13-1.81983-.2753-2.7297-.4435-.16059-.51229-.34409-1.02463-.55056-1.52161a16.15921,16.15921,0,0,0-3.74672-5.50537,19.04235,19.04235,0,0,1-.46641,6.06353q-2.53472-.585-5.04656-1.30749a5.85338,5.85338,0,0,1-4.87836-6.42293c-2.40861,1.83513-5.0313,3.42554-7.784,3.45615a7.26385,7.26385,0,0,1-6.80525-5.29894,17.49144,17.49144,0,0,1-.32878-7.4169c.367-2.94387,1.19282-6.17825,3.18085-7.36342,1.5981-.96345,3.44084-.27526,5.08482.50464a58.57544,58.57544,0,0,1,10.2461,6.2853l.03822.80286c.82582-3.95314,3.55552-7.00407,6.52995-7.30989,2.00334-.19881,3.96079.72641,5.84946,1.65924a27.5856,27.5856,0,0,1,6.81286,4.28958,15.183,15.183,0,0,1,4.6031,7.92924C721.47053,385.06489,720.93527,388.99511,719.05431,391.2737Z" transform="translate(-367 -260.5)" fill="#2f2e41"/><path d="M700.70373,365.54692c.19005.016-.27679-.09116-.12521-.02748a1.5116,1.5116,0,0,1-.21379-.1196c-.01168-.00744-.16229-.12922-.06373-.04445a1.48809,1.48809,0,0,1-.4918-.68641,6.16437,6.16437,0,0,1-.28991-2.04245,6.459,6.459,0,0,0-.45529-2.663,1.58954,1.58954,0,0,0-2.5041-.55843,3.70186,3.70186,0,0,0-.71954,2.47448,7.969,7.969,0,0,0,.26852,2.54089,7.28863,7.28863,0,0,0,2.231,3.50438,7.62386,7.62386,0,0,0,4.41621,1.86432,1.158,1.158,0,0,0,.811-1.958l-2.05239-1.94841a1.14695,1.14695,0,0,0-1.622,1.622l2.05238,1.94841.811-1.958a4.56228,4.56228,0,0,1-.99649-.2036,3.84,3.84,0,0,1-.99543-.43625,4.75919,4.75919,0,0,1-.84764-.59254,6.55715,6.55715,0,0,1-.47621-.46342q-.08211-.08853-.16095-.18014c.00379.00441-.21593-.27142-.12153-.14531a6.4688,6.4688,0,0,1-.61674-1.03328,2.6117,2.6117,0,0,1-.15053-.39851,6.06686,6.06686,0,0,1-.17786-.68569,5.95753,5.95753,0,0,1-.07847-1.47695,6.04655,6.04655,0,0,1,.06252-.62523,2.48429,2.48429,0,0,0,.06409-.33252c.004-.27846-.038.14873-.18324.21359l-.57888.15659a.63028.63028,0,0,1-.47159-.2761q-.03618-.1436.02043.05093a3.743,3.743,0,0,1,.1009.46358,10.82745,10.82745,0,0,1,.0769,1.09606,10.90229,10.90229,0,0,0,.269,2.3067,3.69281,3.69281,0,0,0,3.20938,2.90759,1.15619,1.15619,0,0,0,1.147-1.147A1.17041,1.17041,0,0,0,700.70373,365.54692Z" transform="translate(-367 -260.5)" fill="#2f2e41"/><circle cx="288.11696" cy="102.89321" r="6.88304" fill="#06b6d4"/><path d="M654.178,366.97551a.7654.7654,0,0,1-.61245-.30632l-1.8778-2.50377a.76563.76563,0,1,1,1.225-.91871l1.22852,1.6379,3.15529-4.73288a.76566.76566,0,0,1,1.27414.84942l-3.7556,5.6334a.766.766,0,0,1-.61582.34071Z" transform="translate(-367 -260.5)" fill="#fff"/><path d="M749.117,370.9505a6.79561,6.79561,0,1,1,6.79561-6.7956A6.79561,6.79561,0,0,1,749.117,370.9505Z" transform="translate(-367 -260.5)" fill="#e6e6e6"/><path d="M751.487,365.57692l-1.422-1.422,1.422-1.422a.67035.67035,0,1,0-.948-.948l-1.422,1.422-1.422-1.422a.67034.67034,0,0,0-.948.948l1.422,1.422-1.422,1.422a.67035.67035,0,1,0,.948.948l1.422-1.422,1.422,1.422a.67034.67034,0,1,0,.948-.948Z" transform="translate(-367 -260.5)" fill="#fff"/><path d="M795.36523,306.5H393.63477a1,1,0,0,1,0-2H795.36523a1,1,0,0,1,0,2Z" transform="translate(-367 -260.5)" fill="#fff"/><ellipse cx="71.65445" cy="22.09984" rx="7.72794" ry="7.90016" fill="#fff"/><ellipse cx="98.35098" cy="22.09984" rx="7.72794" ry="7.90016" fill="#fff"/><ellipse cx="125.04751" cy="22.09984" rx="7.72794" ry="7.90016" fill="#fff"/><path d="M522.48863,288.84387a.91082.91082,0,0,1-.65325-.27486l-5.21439-5.3304a.91342.91342,0,0,1,0-1.27794l5.21439-5.33a.91379.91379,0,1,1,1.3065,1.27794l-4.58925,4.691,4.58925,4.69143a.91383.91383,0,0,1-.65325,1.5528Z" transform="translate(-367 -260.5)" fill="#fff"/><path d="M531.25082,288.84387a.91383.91383,0,0,1-.65325-1.5528l4.58881-4.69143-4.58881-4.691a.91379.91379,0,0,1,1.3065-1.27794l5.21394,5.33a.9134.9134,0,0,1,0,1.27794l-5.21394,5.3304A.91082.91082,0,0,1,531.25082,288.84387Z" transform="translate(-367 -260.5)" fill="#fff"/><path d="M733.6741,275.61433h-9.69576a2.0007,2.0007,0,0,0-2.0013,2.0013v9.70491a2.0007,2.0007,0,0,0,2.0013,2.0013h9.69576a2.00852,2.00852,0,0,0,2.01045-2.0013v-9.70491A2.00852,2.00852,0,0,0,733.6741,275.61433Z" transform="translate(-367 -260.5)" fill="#fff"/><path d="M709.91441,275.61433h-9.69577a2.0007,2.0007,0,0,0-2.0013,2.0013v9.70491a2.0007,2.0007,0,0,0,2.0013,2.0013h9.69577a2.00852,2.00852,0,0,0,2.01045-2.0013v-9.70491A2.00852,2.00852,0,0,0,709.91441,275.61433Z" transform="translate(-367 -260.5)" fill="#fff"/><path d="M756.06305,276.07124h-9.69577a2.0007,2.0007,0,0,0-2.0013,2.0013v9.70492a2.0007,2.0007,0,0,0,2.0013,2.0013h9.69577a2.00851,2.00851,0,0,0,2.01044-2.0013v-9.70492A2.00851,2.00851,0,0,0,756.06305,276.07124Z" transform="translate(-367 -260.5)" fill="#fff"/><path d="M650.12982,279.76311H572.62754a2.44,2.44,0,1,0,0,4.8799h77.50228a2.44,2.44,0,0,0,0-4.8799Z" transform="translate(-367 -260.5)" fill="#fff"/></svg>