<svg width="512" height="512" viewBox="0 0 512 512" fill="none" xmlns="http://www.w3.org/2000/svg">
<mask id="mask0_19_5" style="mask-type:alpha" maskUnits="userSpaceOnUse" x="0" y="0" width="512" height="512">
<rect width="512" height="512" fill="#D9D9D9"/>
</mask>
<g mask="url(#mask0_19_5)">
<rect width="512" height="512" fill="#090909"/>
<path d="M353 314C353 331.333 348.667 345.833 340 357.5C331.333 369.167 319 378 303 384C287 390 268 393 246 393C227.333 393 211.167 391.5 197.5 388.5C184.167 385.5 172.333 381.333 162 376V336C172.667 341.333 185.5 346.333 200.5 351C215.833 355.333 231.333 357.5 247 357.5C269.333 357.5 285.5 354 295.5 347C305.5 339.667 310.5 330 310.5 318C310.5 311.333 308.667 305.333 305 300C301.333 294.667 294.667 289.333 285 284C275.667 278.667 262.167 272.667 244.5 266C227.167 259.333 212.333 252.667 200 246C187.667 239.333 178.167 231.333 171.5 222C164.833 212.667 161.5 200.667 161.5 186C161.5 163.333 170.667 145.833 189 133.5C207.667 121.167 232 115 262 115C278.333 115 293.5 116.667 307.5 120C321.833 123 335.167 127.333 347.5 133L332.5 168C325.167 164.667 317.333 161.833 309 159.5C301 156.833 292.833 154.833 284.5 153.5C276.167 151.833 267.667 151 259 151C241 151 227.167 154 217.5 160C208.167 165.667 203.5 173.5 203.5 183.5C203.5 190.833 205.667 197.167 210 202.5C214.333 207.5 221.5 212.5 231.5 217.5C241.833 222.167 255.5 227.833 272.5 234.5C289.5 240.833 304 247.333 316 254C328 260.667 337.167 268.833 343.5 278.5C349.833 287.833 353 299.667 353 314Z" fill="#22D3EE"/>
</g>
</svg>
