<svg width="512" height="512" viewBox="0 0 512 512" fill="none" xmlns="http://www.w3.org/2000/svg">
<mask id="mask0_2_38" style="mask-type:alpha" maskUnits="userSpaceOnUse" x="0" y="0" width="512" height="512">
<circle cx="256" cy="256" r="256" fill="white"/>
</mask>
<g mask="url(#mask0_2_38)">
<rect x="256" y="-85" width="781.653" height="744.107" fill="#514F4F"/>
<rect x="-133.12" y="256" width="781.653" height="744.107" fill="#858484"/>
<rect x="-522.24" y="-488.107" width="781.653" height="744.107" fill="#858484"/>
<rect x="-521" y="256" width="781.653" height="744.107" fill="#514F4F"/>
<path d="M334.5 126L318.5 170.5C303.167 160.5 288 155.5 273 155.5C248.333 155.5 236 165 236 184C236 197 246.333 212.167 267 229.5C276 236.833 284.833 244.5 293.5 252.5C314.167 271.5 324.5 290.667 324.5 310C324.5 325 318.833 339.333 307.5 353C301.167 360.333 290.833 366.167 276.5 370.5C262.5 375.167 246.333 377.5 228 377.5C209.667 377.5 193.167 375.167 178.5 370.5C176.833 369.167 174.833 366.167 172.5 361.5C170.5 356.5 169.5 353 169.5 351C169.5 349 169.833 348 170.5 348C171.5 348 174 348.5 178 349.5C188 352.167 200.667 353.5 216 353.5C231.333 353.5 244.167 350.167 254.5 343.5C265.167 336.833 270.5 328.333 270.5 318C270.5 307.667 266.167 297.5 257.5 287.5C249.167 277.5 239.833 268.5 229.5 260.5C219.5 252.5 210.167 242.667 201.5 231C193.167 219 189 207 189 195C189 184.333 192.5 174.833 199.5 166.5C206.833 157.833 215.167 150.667 224.5 145C247.167 131.667 280.167 122.167 323.5 116.5L334.5 126Z" fill="white"/>
</g>
</svg>
