<?xml version="1.0" encoding="UTF-8" standalone="no"?><!DOCTYPE svg PUBLIC "-//W3C//DTD SVG 1.1//EN" "http://www.w3.org/Graphics/SVG/1.1/DTD/svg11.dtd">
      <svg id="pwaLogo" width="100%" height="100%" viewBox="0 100 400 200" version="1.1" xmlns="http://www.w3.org/2000/svg" xmlns:xlink="http://www.w3.org/1999/xlink" xml:space="preserve" style="fill-rule:evenodd;clip-rule:evenodd;stroke-linejoin:round;stroke-miterlimit:2;">
        <title>PWA logo</title>
        <g id="pwa-logo">
          <path id="svgA" d="M273.151,237.453l8.956,-22.646l25.858,-0l-12.272,-34.354l15.348,-38.812l43.959,116.716l-32.418,0l-7.513,-20.904l-41.918,0" fill="#059669"></path>
          <path id="svgW" d="M245.496,258.359l47.058,-116.716l-31.198,-0l-32.192,75.423l-22.891,-75.423l-23.981,-0l-24.578,75.423l-17.334,-34.368l-15.686,48.326l15.927,27.335l30.702,-0l22.211,-67.64l21.176,67.64l30.786,-0" fill="#a53f09"></path>
          <path id="svgP" d="M74.614,218.291l19.216,0c5.822,0 11.006,-0.65 15.551,-1.95l4.971,-15.309l13.888,-42.793c-1.057,-1.677 -2.266,-3.263 -3.624,-4.758c-7.132,-7.893 -17.566,-11.84 -31.303,-11.84l-48.313,0l-0,116.716l29.614,0l-0,-40.066Zm25.437,-49.797c2.785,2.803 4.178,6.555 4.178,11.255c-0,4.736 -1.225,8.491 -3.674,11.268c-2.687,3.085 -7.631,4.626 -14.836,4.626l-11.105,0l-0,-31.355l11.186,-0c6.715,-0 11.465,1.401 14.251,4.206" fill="#059669"></path>
        </g>
      </svg>
    